<?xml version="1.0" encoding="UTF-8"?>
<!DOCTYPE svg PUBLIC "-//W3C//DTD SVG 1.1//EN" "http://www.w3.org/Graphics/SVG/1.1/DTD/svg11.dtd">
<svg xmlns="http://www.w3.org/2000/svg" xmlns:xlink="http://www.w3.org/1999/xlink" version="1.1" width="100%" height="100%" viewBox="22 -676 1000 750">
 <title>Dice Distribution (bar)</title>
 <desc>Probability density function, p(S), of the sum of two fair six-sided dice, S, illustrated by CMG Lee.</desc>
 <defs>
  <path id="pip_1" d="M 0 0 V 0.1" stroke-width="8" stroke-linecap="round"/>
  <g id="pip_2">
   <use transform="translate(-12,12)" xlink:href="#pip_1"/>
   <use transform="translate(12,-12)" xlink:href="#pip_1"/>
  </g>
  <rect id="dice" x="-22" y="-22" width="44" height="44" rx="11" ry="11" stroke="#000000"/>
  <g id="dice_1">
   <use xlink:href="#dice"/>
   <use xlink:href="#pip_1"/>
  </g>
  <g id="dice_2">
   <use xlink:href="#dice"/>
   <use xlink:href="#pip_2"/>
  </g>
  <g id="dice_3">
   <use xlink:href="#dice_2"/>
   <use xlink:href="#pip_1"/>
  </g>
  <g id="dice_4">
   <use xlink:href="#dice_2"/>
   <use xlink:href="#pip_2" transform="scale(-1,1)"/>
  </g>
  <g id="dice_5">
   <use xlink:href="#dice_4"/>
   <use xlink:href="#pip_1"/>
  </g>
  <g id="dice_6">
   <use xlink:href="#dice_4"/>
   <use xlink:href="#pip_1" transform="translate(-12,0)"/>
   <use xlink:href="#pip_1" transform="translate(12,0)"/>
  </g>
  <g id="main" font-family="Helvetica,Arial,sans-serif" font-size="40" letter-spacing="-3" text-anchor="middle" stroke="#000000" fill="#000000">
   <rect x="100" y="-638" width="800" height="638" fill="none"/>
   <path d="M 500 -576 H 95 M 500 -504 H 95 M 500 -432 H 95 M 500 -360 H 95 M 500 -288 H 95 M 500 -216 H 95 M 500 -144 H 95 M 500 -72 H 95"/>
   <path d="M 535 -600 H 905 M 605 -500 H 905 M 675 -400 H 905 M 745 -300 H 905 M 815 -200 H 905 M 885 -100 H 905"/>
   <g stroke="none">
    <switch><text x="495" y="70" font-style="italic" id="trsvg63"><tspan id="trsvg1">S</tspan></text></switch>
    <switch><text x="150" y="35" id="trsvg64"><tspan id="trsvg2">2</tspan></text></switch>
    <switch><text x="220" y="35" id="trsvg65"><tspan id="trsvg3">3</tspan></text></switch>
    <switch><text x="290" y="35" id="trsvg66"><tspan id="trsvg4">4</tspan></text></switch>
    <switch><text x="360" y="35" id="trsvg67"><tspan id="trsvg5">5</tspan></text></switch>
    <switch><text x="430" y="35" id="trsvg68"><tspan id="trsvg6">6</tspan></text></switch>
    <switch><text x="500" y="35" id="trsvg69"><tspan id="trsvg7">7</tspan></text></switch>
    <switch><text x="570" y="35" id="trsvg70"><tspan id="trsvg8">8</tspan></text></switch>
    <switch><text x="640" y="35" id="trsvg71"><tspan id="trsvg9">9</tspan></text></switch>
    <switch><text x="710" y="35" id="trsvg72"><tspan id="trsvg10">10</tspan></text></switch>
    <switch><text x="780" y="35" id="trsvg73"><tspan id="trsvg11">11</tspan></text></switch>
    <switch><text x="850" y="35" id="trsvg74"><tspan id="trsvg12">12</tspan></text></switch>
    <g transform="translate(58,15)">
     <switch><text x="2" y="-658" id="trsvg75"><tspan font-style="italic" id="trsvg13">p</tspan><tspan id="trsvg14"> (</tspan><tspan font-style="italic" id="trsvg15">S</tspan><tspan id="trsvg16"> )</tspan></text></switch>
     <switch><text x="0" y="-576" id="trsvg76-mk" systemLanguage="mk"><tspan id="trsvg17-mk">0,16</tspan></text><text x="0" y="-576" id="trsvg76"><tspan id="trsvg17">0.16</tspan></text></switch>
     <switch><text x="0" y="-504" id="trsvg77-mk" systemLanguage="mk"><tspan id="trsvg18-mk">0,14</tspan></text><text x="0" y="-504" id="trsvg77"><tspan id="trsvg18">0.14</tspan></text></switch>
     <switch><text x="0" y="-432" id="trsvg78-mk" systemLanguage="mk"><tspan id="trsvg19-mk">0,12</tspan></text><text x="0" y="-432" id="trsvg78"><tspan id="trsvg19">0.12</tspan></text></switch>
     <switch><text x="0" y="-360" id="trsvg79-mk" systemLanguage="mk"><tspan id="trsvg20-mk">0,10</tspan></text><text x="0" y="-360" id="trsvg79"><tspan id="trsvg20">0.10</tspan></text></switch>
     <switch><text x="0" y="-288" id="trsvg80-mk" systemLanguage="mk"><tspan id="trsvg21-mk">0,08</tspan></text><text x="0" y="-288" id="trsvg80"><tspan id="trsvg21">0.08</tspan></text></switch>
     <switch><text x="0" y="-216" id="trsvg81-mk" systemLanguage="mk"><tspan id="trsvg22-mk">0,06</tspan></text><text x="0" y="-216" id="trsvg81"><tspan id="trsvg22">0.06</tspan></text></switch>
     <switch><text x="0" y="-144" id="trsvg82-mk" systemLanguage="mk"><tspan id="trsvg23-mk">0,04</tspan></text><text x="0" y="-144" id="trsvg82"><tspan id="trsvg23">0.04</tspan></text></switch>
     <switch><text x="0" y="-72" id="trsvg83-mk" systemLanguage="mk"><tspan id="trsvg24-mk">0,02</tspan></text><text x="0" y="-72" id="trsvg83"><tspan id="trsvg24">0.02</tspan></text></switch>
    </g>
    <g transform="translate(928,-6)">
     <switch><text x="18" y="-638" id="trsvg84"><tspan font-style="italic" id="trsvg25">p</tspan><tspan id="trsvg26"> (</tspan><tspan font-style="italic" id="trsvg27">S</tspan><tspan id="trsvg28"> )</tspan></text></switch>
     <switch><text x="0" y="-600" id="trsvg85"><tspan id="trsvg29">6</tspan><tspan x="0" id="trsvg30">__</tspan><tspan x="0" dy="44" id="trsvg31">36</tspan></text></switch>
     <switch><text x="0" y="-500" id="trsvg86"><tspan id="trsvg32">5</tspan><tspan x="0" id="trsvg33">__</tspan><tspan x="0" dy="44" id="trsvg34">36</tspan></text></switch>
     <switch><text x="0" y="-400" id="trsvg87"><tspan id="trsvg35">4</tspan><tspan x="0" id="trsvg36">__</tspan><tspan x="0" dy="44" id="trsvg37">36</tspan></text></switch>
     <switch><text x="0" y="-300" id="trsvg88"><tspan id="trsvg38">3</tspan><tspan x="0" id="trsvg39">__</tspan><tspan x="0" dy="44" id="trsvg40">36</tspan></text></switch>
     <switch><text x="0" y="-200" id="trsvg89"><tspan id="trsvg41">2</tspan><tspan x="0" id="trsvg42">__</tspan><tspan x="0" dy="44" id="trsvg43">36</tspan></text></switch>
     <switch><text x="0" y="-100" id="trsvg90"><tspan id="trsvg44">1</tspan><tspan x="0" id="trsvg45">__</tspan><tspan x="0" dy="44" id="trsvg46">36</tspan></text></switch>
    </g>
    <g transform="translate(995,-5)">
     <switch><text x="0" y="-600" id="trsvg91"><tspan id="trsvg47">1</tspan><tspan x="0" id="trsvg48">_</tspan><tspan x="0" dy="44" id="trsvg49">6</tspan><tspan x="-33" dy="-22" id="trsvg50">=</tspan></text></switch>
     <switch><text x="0" y="-400" id="trsvg92"><tspan id="trsvg51">1</tspan><tspan x="0" id="trsvg52">_</tspan><tspan x="0" dy="44" id="trsvg53">9</tspan><tspan x="-33" dy="-22" id="trsvg54">=</tspan></text></switch>
     <switch><text x="0" y="-300" id="trsvg93"><tspan id="trsvg55">1</tspan><tspan x="0" id="trsvg56">__</tspan><tspan x="0" dy="44" id="trsvg57">12</tspan><tspan x="-33" dy="-22" id="trsvg58">=</tspan></text></switch>
     <switch><text x="0" y="-200" id="trsvg94"><tspan id="trsvg59">1</tspan><tspan x="0" id="trsvg60">__</tspan><tspan x="0" dy="44" id="trsvg61">18</tspan><tspan x="-33" dy="-22" id="trsvg62">=</tspan></text></switch>
    </g>
   </g>
   <g stroke="#006600" fill="#009900">
    <rect x="122" y="-100" width="56" height="100"/>
    <rect x="192" y="-200" width="56" height="200"/>
    <rect x="262" y="-300" width="56" height="300"/>
    <rect x="332" y="-400" width="56" height="400"/>
    <rect x="402" y="-500" width="56" height="500"/>
    <rect x="472" y="-600" width="56" height="600"/>
    <rect x="542" y="-500" width="56" height="500"/>
    <rect x="612" y="-400" width="56" height="400"/>
    <rect x="682" y="-300" width="56" height="300"/>
    <rect x="752" y="-200" width="56" height="200"/>
    <rect x="822" y="-100" width="56" height="100"/>
   </g>
   <g fill="#ffffff">
    <g transform="translate(150,-72)">
     <use xlink:href="#dice_1"/>
    </g>
    <g transform="translate(220,-72)">
     <use xlink:href="#dice_2"/>
     <use xlink:href="#dice_1" transform="translate(0,-100)"/>
    </g>
    <g transform="translate(290,-72)">
     <use xlink:href="#dice_3"/>
     <use xlink:href="#dice_2" transform="translate(0,-100)"/>
     <use xlink:href="#dice_1" transform="translate(0,-200)"/>
    </g>
    <g transform="translate(360,-72)">
     <use xlink:href="#dice_4"/>
     <use xlink:href="#dice_3" transform="translate(0,-100)"/>
     <use xlink:href="#dice_2" transform="translate(0,-200)"/>
     <use xlink:href="#dice_1" transform="translate(0,-300)"/>
    </g>
    <g transform="translate(430,-72)">
     <use xlink:href="#dice_5"/>
     <use xlink:href="#dice_4" transform="translate(0,-100)"/>
     <use xlink:href="#dice_3" transform="translate(0,-200)"/>
     <use xlink:href="#dice_2" transform="translate(0,-300)"/>
     <use xlink:href="#dice_1" transform="translate(0,-400)"/>
    </g>
    <g transform="translate(500,-72)">
     <use xlink:href="#dice_6"/>
     <use xlink:href="#dice_5" transform="translate(0,-100)"/>
     <use xlink:href="#dice_4" transform="translate(0,-200)"/>
     <use xlink:href="#dice_3" transform="translate(0,-300)"/>
     <use xlink:href="#dice_2" transform="translate(0,-400)"/>
     <use xlink:href="#dice_1" transform="translate(0,-500)"/>
    </g>
    <g transform="translate(570,-72)">
     <use xlink:href="#dice_6"/>
     <use xlink:href="#dice_5" transform="translate(0,-100)"/>
     <use xlink:href="#dice_4" transform="translate(0,-200)"/>
     <use xlink:href="#dice_3" transform="translate(0,-300)"/>
     <use xlink:href="#dice_2" transform="translate(0,-400)"/>
    </g>
    <g transform="translate(640,-72)">
     <use xlink:href="#dice_6"/>
     <use xlink:href="#dice_5" transform="translate(0,-100)"/>
     <use xlink:href="#dice_4" transform="translate(0,-200)"/>
     <use xlink:href="#dice_3" transform="translate(0,-300)"/>
    </g>
    <g transform="translate(710,-72)">
     <use xlink:href="#dice_6"/>
     <use xlink:href="#dice_5" transform="translate(0,-100)"/>
     <use xlink:href="#dice_4" transform="translate(0,-200)"/>
    </g>
    <g transform="translate(780,-72)">
     <use xlink:href="#dice_6"/>
     <use xlink:href="#dice_5" transform="translate(0,-100)"/>
    </g>
    <g transform="translate(850,-72)">
     <use xlink:href="#dice_6"/>
    </g>
   </g>
   <g stroke="#ffffff">
    <g transform="translate(150,-27)">
     <use xlink:href="#dice_1"/>
    </g>
    <g transform="translate(220,-27)">
     <use xlink:href="#dice_1"/>
     <use xlink:href="#dice_2" transform="translate(0,-100)"/>
    </g>
    <g transform="translate(290,-27)">
     <use xlink:href="#dice_1"/>
     <use xlink:href="#dice_2" transform="translate(0,-100)"/>
     <use xlink:href="#dice_3" transform="translate(0,-200)"/>
    </g>
    <g transform="translate(360,-27)">
     <use xlink:href="#dice_1"/>
     <use xlink:href="#dice_2" transform="translate(0,-100)"/>
     <use xlink:href="#dice_3" transform="translate(0,-200)"/>
     <use xlink:href="#dice_4" transform="translate(0,-300)"/>
    </g>
    <g transform="translate(430,-27)">
     <use xlink:href="#dice_1"/>
     <use xlink:href="#dice_2" transform="translate(0,-100)"/>
     <use xlink:href="#dice_3" transform="translate(0,-200)"/>
     <use xlink:href="#dice_4" transform="translate(0,-300)"/>
     <use xlink:href="#dice_5" transform="translate(0,-400)"/>
    </g>
    <g transform="translate(500,-27)">
     <use xlink:href="#dice_1"/>
     <use xlink:href="#dice_2" transform="translate(0,-100)"/>
     <use xlink:href="#dice_3" transform="translate(0,-200)"/>
     <use xlink:href="#dice_4" transform="translate(0,-300)"/>
     <use xlink:href="#dice_5" transform="translate(0,-400)"/>
     <use xlink:href="#dice_6" transform="translate(0,-500)"/>
    </g>
    <g transform="translate(570,-27)">
     <use xlink:href="#dice_2"/>
     <use xlink:href="#dice_3" transform="translate(0,-100)"/>
     <use xlink:href="#dice_4" transform="translate(0,-200)"/>
     <use xlink:href="#dice_5" transform="translate(0,-300)"/>
     <use xlink:href="#dice_6" transform="translate(0,-400)"/>
    </g>
    <g transform="translate(640,-27)">
     <use xlink:href="#dice_3"/>
     <use xlink:href="#dice_4" transform="translate(0,-100)"/>
     <use xlink:href="#dice_5" transform="translate(0,-200)"/>
     <use xlink:href="#dice_6" transform="translate(0,-300)"/>
    </g>
    <g transform="translate(710,-27)">
     <use xlink:href="#dice_4"/>
     <use xlink:href="#dice_5" transform="translate(0,-100)"/>
     <use xlink:href="#dice_6" transform="translate(0,-200)"/>
    </g>
    <g transform="translate(780,-27)">
     <use xlink:href="#dice_5"/>
     <use xlink:href="#dice_6" transform="translate(0,-100)"/>
    </g>
    <g transform="translate(850,-27)">
     <use xlink:href="#dice_6"/>
    </g>
   </g>
  </g>
 </defs>
 <use xlink:href="#main"/>
</svg>
